<svg width="69" height="62" viewBox="0 0 69 62" fill="none" xmlns="http://www.w3.org/2000/svg">
<g id="4">
<rect id="Background" width="69" height="62" rx="10" fill="#D1FBFD"/>
<path id="Vector" d="M43.2857 21H24.7143C23.7295 21.0011 22.7854 21.3877 22.0891 22.0751C21.3927 22.7625 21.0011 23.6945 21 24.6667V39.3333C21.0011 40.3055 21.3927 41.2375 22.0891 41.9249C22.7854 42.6123 23.7295 42.9989 24.7143 43H43.2857C44.2705 42.9989 45.2146 42.6123 45.9109 41.9249C46.6073 41.2375 46.9989 40.3055 47 39.3333V24.6667C46.9989 23.6945 46.6073 22.7625 45.9109 22.0751C45.2146 21.3877 44.2705 21.0011 43.2857 21V21ZM38.6429 24.6667C39.1938 24.6667 39.7324 24.828 40.1905 25.1301C40.6486 25.4323 41.0057 25.8618 41.2165 26.3643C41.4274 26.8668 41.4825 27.4197 41.375 27.9532C41.2676 28.4866 41.0022 28.9766 40.6127 29.3612C40.2231 29.7458 39.7267 30.0077 39.1863 30.1138C38.6459 30.2199 38.0858 30.1655 37.5768 29.9573C37.0678 29.7492 36.6327 29.3967 36.3266 28.9445C36.0205 28.4922 35.8571 27.9606 35.8571 27.4167C35.8579 26.6876 36.1517 25.9885 36.6739 25.473C37.1962 24.9574 37.9043 24.6674 38.6429 24.6667V24.6667ZM24.7143 41.1667C24.2217 41.1667 23.7494 40.9735 23.4011 40.6297C23.0528 40.2859 22.8571 39.8196 22.8571 39.3333V35.4587L28.3612 30.629C28.8923 30.1641 29.5829 29.9165 30.2925 29.9367C31.002 29.9569 31.677 30.2434 32.18 30.7379L35.9494 34.4509L29.1465 41.1667H24.7143ZM45.1429 39.3333C45.1429 39.8196 44.9472 40.2859 44.5989 40.6297C44.2506 40.9735 43.7783 41.1667 43.2857 41.1667H31.7732L38.8199 34.2103C39.3188 33.7915 39.9519 33.5607 40.6068 33.559C41.2617 33.5574 41.8961 33.7849 42.3972 34.2011L45.1429 36.4596V39.3333Z" fill="#90D9DE"/>
</g>
</svg>
