<svg width="28" height="26" viewBox="0 0 28 26" fill="none" xmlns="http://www.w3.org/2000/svg">
<g id="Chat">
<path id="Vector" d="M23.5 1H4.5C3.57255 1.00264 2.68385 1.37223 2.02804 2.02804C1.37223 2.68385 1.00264 3.57255 1 4.5V16.5C1.00264 17.4274 1.37223 18.3162 2.02804 18.972C2.68385 19.6278 3.57255 19.9974 4.5 20H7V25L12.8575 20.1162C12.9474 20.0411 13.0609 20 13.1781 20H23.5C24.4274 19.9974 25.3162 19.6278 25.972 18.972C26.6278 18.3162 26.9974 17.4274 27 16.5V4.5C26.9974 3.57255 26.6278 2.68385 25.972 2.02804C25.3162 1.37223 24.4274 1.00264 23.5 1V1Z" stroke="#C8C8C8" stroke-width="2" stroke-linejoin="round"/>
<path id="Vector_2" d="M8 13C9.10457 13 10 12.1046 10 11C10 9.89543 9.10457 9 8 9C6.89543 9 6 9.89543 6 11C6 12.1046 6.89543 13 8 13Z" fill="#C1C1C1"/>
<path id="Vector_3" d="M14 13C15.1046 13 16 12.1046 16 11C16 9.89543 15.1046 9 14 9C12.8954 9 12 9.89543 12 11C12 12.1046 12.8954 13 14 13Z" fill="#C1C1C1"/>
<path id="Vector_4" d="M20 13C21.1046 13 22 12.1046 22 11C22 9.89543 21.1046 9 20 9C18.8954 9 18 9.89543 18 11C18 12.1046 18.8954 13 20 13Z" fill="#C1C1C1"/>
</g>
</svg>
