<svg width="18" height="17" viewBox="0 0 18 17" fill="none" xmlns="http://www.w3.org/2000/svg">
<g id="Group 8">
<path id="Vector" d="M12.2367 1.47295L2.54547 4.17225C1.74263 4.39587 1.27307 5.22798 1.49669 6.03083L3.92607 14.7529C4.14969 15.5557 4.9818 16.0253 5.78464 15.8017L15.4758 13.1024C16.2787 12.8787 16.7482 12.0466 16.5246 11.2438L14.0952 2.52173C13.8716 1.71888 13.0395 1.24933 12.2367 1.47295Z" stroke="#5956E9" stroke-linejoin="round"/>
<path id="Vector_2" d="M10.0868 7.81519C10.4882 7.70338 10.723 7.28733 10.6112 6.88591C10.4994 6.48449 10.0833 6.24971 9.68192 6.36152C9.28049 6.47333 9.04572 6.88938 9.15753 7.2908C9.26933 7.69223 9.68539 7.927 10.0868 7.81519Z" fill="#5956E9"/>
<path id="Vector_3" d="M12.5097 7.14039C12.9111 7.02858 13.1459 6.61252 13.0341 6.2111C12.9222 5.80968 12.5062 5.5749 12.1048 5.68671C11.7033 5.79852 11.4686 6.21458 11.5804 6.616C11.6922 7.01742 12.1082 7.2522 12.5097 7.14039Z" fill="#5956E9"/>
<path id="Vector_4" d="M10.7616 10.238C11.163 10.1262 11.3978 9.71018 11.286 9.30876C11.1742 8.90734 10.7581 8.67256 10.3567 8.78437C9.9553 8.89618 9.72052 9.31223 9.83233 9.71365C9.94414 10.1151 10.3602 10.3499 10.7616 10.238Z" fill="#5956E9"/>
<path id="Vector_5" d="M13.1845 9.56324C13.5859 9.45143 13.8207 9.03538 13.7089 8.63395C13.5971 8.23253 13.181 7.99775 12.7796 8.10956C12.3782 8.22137 12.1434 8.63743 12.2552 9.03885C12.367 9.44027 12.783 9.67505 13.1845 9.56324Z" fill="#5956E9"/>
<path id="Vector_6" d="M5.9164 11.5877C6.31782 11.4758 6.5526 11.0598 6.44079 10.6584C6.32898 10.2569 5.91293 10.0222 5.51151 10.134C5.11008 10.2458 4.87531 10.6618 4.98712 11.0633C5.09892 11.4647 5.51498 11.6995 5.9164 11.5877Z" fill="#5956E9"/>
<path id="Vector_7" d="M8.33877 10.9129C8.74019 10.801 8.97496 10.385 8.86316 9.98356C8.75135 9.58214 8.33529 9.34736 7.93387 9.45917C7.53245 9.57098 7.29767 9.98704 7.40948 10.3885C7.52129 10.7899 7.93734 11.0247 8.33877 10.9129Z" fill="#5956E9"/>
<path id="Vector_8" d="M6.59121 14.01C6.99263 13.8982 7.22741 13.4822 7.1156 13.0807C7.00379 12.6793 6.58773 12.4445 6.18631 12.5563C5.78489 12.6682 5.55011 13.0842 5.66192 13.4856C5.77373 13.887 6.18979 14.1218 6.59121 14.01Z" fill="#5956E9"/>
<path id="Vector_9" d="M9.01357 13.3352C9.41499 13.2234 9.64977 12.8073 9.53796 12.4059C9.42615 12.0045 9.0101 11.7697 8.60867 11.8815C8.20725 11.9933 7.97247 12.4094 8.08428 12.8108C8.19609 13.2122 8.61215 13.447 9.01357 13.3352Z" fill="#5956E9"/>
<path id="Vector_10" d="M11.4364 12.6604C11.8378 12.5486 12.0726 12.1325 11.9608 11.7311C11.849 11.3297 11.4329 11.0949 11.0315 11.2067C10.6301 11.3185 10.3953 11.7346 10.5071 12.136C10.6189 12.5374 11.035 12.7722 11.4364 12.6604Z" fill="#5956E9"/>
<g id="Group 7">
<path id="Vector_11" d="M10.9976 0.773661L11.2675 1.74278M3.24463 2.93311L3.51456 3.90222L3.24463 2.93311Z" stroke="#5956E9" stroke-width="1.5" stroke-linecap="round" stroke-linejoin="round"/>
<path id="Vector_12" d="M14.3651 3.49041L1.7666 6.99951" stroke="#5956E9" stroke-width="1.5" stroke-linejoin="round"/>
</g>
</g>
</svg>
