<svg width="28" height="24" viewBox="0 0 28 24" fill="none" xmlns="http://www.w3.org/2000/svg">
<g id="Image">
<path id="Vector" d="M24 1H4C2.34315 1 1 2.34315 1 4V20C1 21.6569 2.34315 23 4 23H24C25.6569 23 27 21.6569 27 20V4C27 2.34315 25.6569 1 24 1Z" stroke="#C8C8C8" stroke-width="2" stroke-linejoin="round"/>
<path id="Vector_2" d="M19 9C20.1046 9 21 8.10457 21 7C21 5.89543 20.1046 5 19 5C17.8954 5 17 5.89543 17 7C17 8.10457 17.8954 9 19 9Z" stroke="#C8C8C8" stroke-width="2" stroke-miterlimit="10"/>
<path id="Vector_3" d="M12 23L19.7087 15.2912C20.0613 14.938 20.5332 14.7293 21.0317 14.7062C21.5302 14.683 22.0194 14.8471 22.4031 15.1662L27 19M17 16.9869L11.3337 11.3312C10.9732 10.9708 10.4886 10.7616 9.97894 10.7465C9.46931 10.7314 8.97315 10.9115 8.59188 11.25L1 18L17 16.9869Z" stroke="#C8C8C8" stroke-width="2" stroke-linecap="round" stroke-linejoin="round"/>
</g>
</svg>
