<svg width="14" height="14" viewBox="0 0 14 14" fill="none" xmlns="http://www.w3.org/2000/svg">
<g id="Insta">
<path id="Vector" d="M9.74629 1.10407C10.5059 1.10625 11.2338 1.3978 11.7709 1.91505C12.308 2.43229 12.6108 3.13319 12.6131 3.86468V9.38532C12.6108 10.1168 12.308 10.8177 11.7709 11.335C11.2338 11.8522 10.5059 12.1437 9.74629 12.1459H4.01332C3.2537 12.1437 2.52584 11.8522 1.9887 11.335C1.45157 10.8177 1.1488 10.1168 1.14653 9.38532V3.86468C1.1488 3.13319 1.45157 2.43229 1.9887 1.91505C2.52584 1.3978 3.2537 1.10625 4.01332 1.10407H9.74629V1.10407ZM9.74629 0H4.01332C1.80595 0 0 1.73906 0 3.86468V9.38532C0 11.5109 1.80595 13.25 4.01332 13.25H9.74629C11.9537 13.25 13.7596 11.5109 13.7596 9.38532V3.86468C13.7596 1.73906 11.9537 0 9.74629 0V0Z" fill="#FA6488"/>
<path id="Vector_2" d="M10.6058 3.86475C10.4357 3.86475 10.2695 3.81618 10.128 3.72518C9.98662 3.63419 9.87639 3.50485 9.8113 3.35353C9.74621 3.20221 9.72918 3.0357 9.76237 2.87506C9.79555 2.71442 9.87745 2.56686 9.99772 2.45105C10.118 2.33523 10.2712 2.25636 10.438 2.22441C10.6049 2.19246 10.7778 2.20885 10.9349 2.27153C11.0921 2.33421 11.2264 2.44036 11.3209 2.57654C11.4154 2.71272 11.4658 2.87283 11.4658 3.03662C11.466 3.14544 11.444 3.25323 11.4008 3.35381C11.3577 3.45439 11.2944 3.54577 11.2145 3.62272C11.1345 3.69966 11.0396 3.76065 10.9352 3.80219C10.8308 3.84372 10.7188 3.86498 10.6058 3.86475V3.86475ZM6.87936 4.41663C7.33294 4.41663 7.77634 4.54616 8.15349 4.78882C8.53063 5.03149 8.82458 5.3764 8.99816 5.77993C9.17174 6.18347 9.21715 6.62751 9.12866 7.05591C9.04017 7.4843 8.82175 7.87781 8.50102 8.18666C8.18028 8.49552 7.77164 8.70585 7.32677 8.79106C6.8819 8.87627 6.42078 8.83254 6.00172 8.66539C5.58266 8.49824 5.22449 8.21518 4.97249 7.852C4.72049 7.48883 4.58599 7.06185 4.58599 6.62506C4.58664 6.03954 4.82847 5.47818 5.25842 5.06416C5.68837 4.65013 6.27132 4.41726 6.87936 4.41663V4.41663ZM6.87936 3.31256C6.19901 3.31256 5.53394 3.50684 4.96825 3.87082C4.40256 4.2348 3.96166 4.75215 3.7013 5.35743C3.44094 5.96271 3.37282 6.62874 3.50555 7.2713C3.63828 7.91386 3.9659 8.50409 4.44698 8.96736C4.92806 9.43062 5.54099 9.7461 6.20827 9.87392C6.87554 10.0017 7.56719 9.93613 8.19575 9.68542C8.82431 9.4347 9.36155 9.01013 9.73953 8.46539C10.1175 7.92065 10.3193 7.28022 10.3193 6.62506C10.3193 5.74653 9.95684 4.90399 9.31174 4.28277C8.66663 3.66156 7.79168 3.31256 6.87936 3.31256V3.31256Z" fill="#FA6488"/>
</g>
</svg>
