<svg width="52" height="52" viewBox="0 0 52 52" fill="none" xmlns="http://www.w3.org/2000/svg">
<g id="Like">
<circle id="Ellipse 60" cx="26" cy="26" r="26" fill="#F3F3F3"/>
<path id="Vector" d="M25 38C24.6295 37.9995 24.2676 37.8883 23.9616 37.6809C19.4278 34.6244 17.4646 32.5286 16.3818 31.2184C14.0742 28.4254 12.9695 25.558 13.0006 22.4528C13.037 18.8944 15.9116 16 19.4088 16C21.9517 16 23.713 17.4226 24.7387 18.6073C24.7712 18.6445 24.8113 18.6743 24.8564 18.6947C24.9015 18.7151 24.9504 18.7257 25 18.7257C25.0496 18.7257 25.0985 18.7151 25.1436 18.6947C25.1887 18.6743 25.2288 18.6445 25.2613 18.6073C26.287 17.4214 28.0483 16 30.5912 16C34.0884 16 36.963 18.8944 36.9994 22.4533C37.0305 25.5591 35.9246 28.4266 33.6182 31.219C32.5354 32.5292 30.5722 34.6249 26.0384 37.6815C25.7323 37.8887 25.3705 37.9997 25 38Z" fill="#FF3F6D"/>
</g>
</svg>
