<svg width="205" height="86" viewBox="0 0 205 86" fill="none" xmlns="http://www.w3.org/2000/svg">
<g id="01">
<rect id="Rectangle 310" x="0.487305" y="55.1045" width="172" height="32" rx="5" transform="rotate(-15.5642 0.487305 55.1045)" fill="white"/>
<path id="Vector" d="M23.0444 65.9497L32.1586 63.4111M26.4261 69.6791L23.3138 70.5459C22.0756 70.8908 20.761 70.7648 19.659 70.1957C18.5571 69.6266 17.7581 68.661 17.4379 67.5113C17.1177 66.3615 17.3024 65.1219 17.9515 64.0651C18.6005 63.0083 19.6608 62.2208 20.8989 61.876L24.0112 61.0091L26.4261 69.6791ZM28.6797 59.7088L31.792 58.8419C33.0301 58.497 34.3448 58.623 35.4467 59.1921C36.5486 59.7612 37.3476 60.7269 37.6678 61.8766C37.9881 63.0263 37.8033 64.2659 37.1543 65.3227C36.5052 66.3795 35.445 67.167 34.2068 67.5119L31.0945 68.3787L28.6797 59.7088Z" stroke="#9EC39E" stroke-width="1.5" stroke-linecap="round" stroke-linejoin="round"/>
<rect id="Rectangle 315" x="43.4717" y="56.627" width="120" height="7" rx="3.5" transform="rotate(-15.5642 43.4717 56.627)" fill="#CCE9CC"/>
<circle id="Ellipse 81" cx="188.618" cy="22.4272" r="13" transform="rotate(-15.5642 188.618 22.4272)" fill="white"/>
<path id="Vector_2" d="M192.361 17.2326L187.359 27.9686L183.214 25.3861" stroke="#31C65B" stroke-width="2" stroke-linecap="round" stroke-linejoin="round"/>
</g>
</svg>
