<svg width="69" height="134" viewBox="0 0 69 134" fill="none" xmlns="http://www.w3.org/2000/svg">
<g id="2">
<rect id="Background" width="69" height="134" rx="10" fill="#E9E6FF"/>
<path id="Vector" d="M43.2857 60H24.7143C23.7295 60.0011 22.7854 60.3877 22.0891 61.0751C21.3927 61.7625 21.0011 62.6945 21 63.6667V78.3333C21.0011 79.3055 21.3927 80.2375 22.0891 80.9249C22.7854 81.6123 23.7295 81.9989 24.7143 82H43.2857C44.2705 81.9989 45.2146 81.6123 45.9109 80.9249C46.6073 80.2375 46.9989 79.3055 47 78.3333V63.6667C46.9989 62.6945 46.6073 61.7625 45.9109 61.0751C45.2146 60.3877 44.2705 60.0011 43.2857 60V60ZM38.6429 63.6667C39.1938 63.6667 39.7324 63.828 40.1905 64.1301C40.6486 64.4323 41.0057 64.8618 41.2165 65.3643C41.4274 65.8668 41.4825 66.4197 41.375 66.9532C41.2676 67.4866 41.0022 67.9766 40.6127 68.3612C40.2231 68.7458 39.7267 69.0077 39.1863 69.1138C38.6459 69.2199 38.0858 69.1655 37.5768 68.9573C37.0678 68.7492 36.6327 68.3967 36.3266 67.9445C36.0205 67.4922 35.8571 66.9606 35.8571 66.4167C35.8579 65.6876 36.1517 64.9885 36.6739 64.473C37.1962 63.9574 37.9043 63.6674 38.6429 63.6667V63.6667ZM24.7143 80.1667C24.2217 80.1667 23.7494 79.9735 23.4011 79.6297C23.0528 79.2859 22.8571 78.8196 22.8571 78.3333V74.4587L28.3612 69.629C28.8923 69.1641 29.5829 68.9165 30.2925 68.9367C31.002 68.9569 31.677 69.2434 32.18 69.7379L35.9494 73.4509L29.1465 80.1667H24.7143ZM45.1429 78.3333C45.1429 78.8196 44.9472 79.2859 44.5989 79.6297C44.2506 79.9735 43.7783 80.1667 43.2857 80.1667H31.7732L38.8199 73.2103C39.3188 72.7915 39.9519 72.5607 40.6068 72.559C41.2617 72.5574 41.8961 72.7849 42.3972 73.2011L45.1429 75.4596V78.3333Z" fill="#C7BDFF"/>
</g>
</svg>
