<svg width="69" height="62" viewBox="0 0 69 62" fill="none" xmlns="http://www.w3.org/2000/svg">
<g id="2">
<rect id="Background" width="69" height="62" rx="10" fill="#FFF0F0"/>
<path id="Vector" d="M43.2857 20H24.7143C23.7295 20.0011 22.7854 20.3877 22.0891 21.0751C21.3927 21.7625 21.0011 22.6945 21 23.6667V38.3333C21.0011 39.3055 21.3927 40.2375 22.0891 40.9249C22.7854 41.6123 23.7295 41.9989 24.7143 42H43.2857C44.2705 41.9989 45.2146 41.6123 45.9109 40.9249C46.6073 40.2375 46.9989 39.3055 47 38.3333V23.6667C46.9989 22.6945 46.6073 21.7625 45.9109 21.0751C45.2146 20.3877 44.2705 20.0011 43.2857 20V20ZM38.6429 23.6667C39.1938 23.6667 39.7324 23.828 40.1905 24.1301C40.6486 24.4323 41.0057 24.8618 41.2165 25.3643C41.4274 25.8668 41.4825 26.4197 41.375 26.9532C41.2676 27.4866 41.0022 27.9766 40.6127 28.3612C40.2231 28.7458 39.7267 29.0077 39.1863 29.1138C38.6459 29.2199 38.0858 29.1655 37.5768 28.9573C37.0678 28.7492 36.6327 28.3967 36.3266 27.9445C36.0205 27.4922 35.8571 26.9606 35.8571 26.4167C35.8579 25.6876 36.1517 24.9885 36.6739 24.473C37.1962 23.9574 37.9043 23.6674 38.6429 23.6667V23.6667ZM24.7143 40.1667C24.2217 40.1667 23.7494 39.9735 23.4011 39.6297C23.0528 39.2859 22.8571 38.8196 22.8571 38.3333V34.4587L28.3612 29.629C28.8923 29.1641 29.5829 28.9165 30.2925 28.9367C31.002 28.9569 31.677 29.2434 32.18 29.7379L35.9494 33.4509L29.1465 40.1667H24.7143ZM45.1429 38.3333C45.1429 38.8196 44.9472 39.2859 44.5989 39.6297C44.2506 39.9735 43.7783 40.1667 43.2857 40.1667H31.7732L38.8199 33.2103C39.3188 32.7915 39.9519 32.5607 40.6068 32.559C41.2617 32.5574 41.8961 32.7849 42.3972 33.2011L45.1429 35.4596V38.3333Z" fill="#FFCCCC"/>
</g>
</svg>
