<svg width="13" height="12" viewBox="0 0 13 12" fill="none" xmlns="http://www.w3.org/2000/svg">
<path id="Pattern" d="M8.50514 11.6646C8.31173 11.7182 8.10801 11.7172 7.92049 11.6618C5.14467 10.8485 3.83913 10.1244 3.09832 9.65067C1.51952 8.64077 0.558361 7.42019 0.158024 5.91999C-0.300402 4.20076 0.811297 2.38884 2.63611 1.88057C3.96302 1.51098 5.0729 1.94019 5.76707 2.36179C5.78901 2.37496 5.81396 2.38348 5.84022 2.38676C5.86649 2.39004 5.89346 2.38801 5.91932 2.38081C5.94517 2.37361 5.96931 2.3614 5.9901 2.34502C6.01088 2.32863 6.02783 2.30844 6.0398 2.28583C6.41592 1.56553 7.14425 0.624904 8.47117 0.255315C10.296 -0.252953 12.1843 0.723366 12.6807 2.43231C13.1137 3.92373 12.9213 5.46561 12.0924 7.14582C11.7032 7.93431 10.9599 9.22907 9.00425 11.3602C8.87233 11.5045 8.69842 11.6106 8.50514 11.6646V11.6646Z" fill="#FF2156"/>
</svg>
