<svg width="69" height="62" viewBox="0 0 69 62" fill="none" xmlns="http://www.w3.org/2000/svg">
<g id="1">
<rect id="Background" width="69" height="62" rx="10" fill="#F9D6FF"/>
<path id="Vector" d="M44.2857 20H25.7143C24.7295 20.0011 23.7854 20.3877 23.0891 21.0751C22.3927 21.7625 22.0011 22.6945 22 23.6667V38.3333C22.0011 39.3055 22.3927 40.2375 23.0891 40.9249C23.7854 41.6123 24.7295 41.9989 25.7143 42H44.2857C45.2705 41.9989 46.2146 41.6123 46.9109 40.9249C47.6073 40.2375 47.9989 39.3055 48 38.3333V23.6667C47.9989 22.6945 47.6073 21.7625 46.9109 21.0751C46.2146 20.3877 45.2705 20.0011 44.2857 20V20ZM39.6429 23.6667C40.1938 23.6667 40.7324 23.828 41.1905 24.1301C41.6486 24.4323 42.0057 24.8618 42.2165 25.3643C42.4274 25.8668 42.4825 26.4197 42.375 26.9532C42.2676 27.4866 42.0022 27.9766 41.6127 28.3612C41.2231 28.7458 40.7267 29.0077 40.1863 29.1138C39.6459 29.2199 39.0858 29.1655 38.5768 28.9573C38.0678 28.7492 37.6327 28.3967 37.3266 27.9445C37.0205 27.4922 36.8571 26.9606 36.8571 26.4167C36.8579 25.6876 37.1517 24.9885 37.6739 24.473C38.1962 23.9574 38.9043 23.6674 39.6429 23.6667V23.6667ZM25.7143 40.1667C25.2217 40.1667 24.7494 39.9735 24.4011 39.6297C24.0528 39.2859 23.8571 38.8196 23.8571 38.3333V34.4587L29.3612 29.629C29.8923 29.1641 30.5829 28.9165 31.2925 28.9367C32.002 28.9569 32.677 29.2434 33.18 29.7379L36.9494 33.4509L30.1465 40.1667H25.7143ZM46.1429 38.3333C46.1429 38.8196 45.9472 39.2859 45.5989 39.6297C45.2506 39.9735 44.7783 40.1667 44.2857 40.1667H32.7732L39.8199 33.2103C40.3188 32.7915 40.9519 32.5607 41.6068 32.559C42.2617 32.5574 42.8961 32.7849 43.3972 33.2011L46.1429 35.4596V38.3333Z" fill="#F5BDFF"/>
</g>
</svg>
