<svg width="241" height="52" viewBox="0 0 241 52" fill="none" xmlns="http://www.w3.org/2000/svg">
<g id="Social Media">
<rect id="Rectangle 252" x="0.5" y="0.5" width="240" height="51" rx="23.5" fill="white" stroke="#E7E7E7"/>
<g id="Fb">
<path id="Vector" fill-rule="evenodd" clip-rule="evenodd" d="M85.625 26.0684C85.625 19.7867 80.3357 14.6934 73.8125 14.6934C67.2893 14.6934 62 19.7867 62 26.0684C62 31.7457 66.3189 36.4516 71.9668 37.3057V29.3575H68.9667V26.0684H71.9668V23.5623C71.9668 20.712 73.7308 19.1362 76.4287 19.1362C77.7212 19.1362 79.0733 19.3586 79.0733 19.3586V22.1582H77.583C76.1165 22.1582 75.6577 23.0347 75.6577 23.9355V26.0684H78.9335L78.4104 29.3575H75.6582V37.3068C81.3061 36.4531 85.625 31.7472 85.625 26.0684Z" fill="#5B62FF"/>
</g>
<g id="Insta">
<path id="Vector_2" d="M35.7342 16.5207C37.0385 16.5244 38.2882 17.025 39.2104 17.9131C40.1327 18.8012 40.6525 20.0046 40.6564 21.2606V30.7394C40.6525 31.9954 40.1327 33.1988 39.2104 34.0869C38.2882 34.975 37.0385 35.4756 35.7342 35.4793H25.8908C24.5865 35.4756 23.3368 34.975 22.4146 34.0869C21.4923 33.1988 20.9725 31.9954 20.9686 30.7394V21.2606C20.9725 20.0046 21.4923 18.8012 22.4146 17.9131C23.3368 17.025 24.5865 16.5244 25.8908 16.5207H35.7342ZM35.7342 14.625H25.8908C22.1008 14.625 19 17.6109 19 21.2606V30.7394C19 34.3891 22.1008 37.375 25.8908 37.375H35.7342C39.5242 37.375 42.625 34.3891 42.625 30.7394V21.2606C42.625 17.6109 39.5242 14.625 35.7342 14.625Z" fill="#FA6488"/>
<path id="Vector_3" d="M37.2108 21.2607C36.9187 21.2607 36.6332 21.1774 36.3904 21.0211C36.1476 20.8649 35.9584 20.6428 35.8466 20.383C35.7348 20.1232 35.7056 19.8373 35.7626 19.5615C35.8195 19.2857 35.9602 19.0323 36.1667 18.8335C36.3732 18.6346 36.6363 18.4992 36.9227 18.4443C37.2091 18.3895 37.506 18.4176 37.7758 18.5252C38.0456 18.6328 38.2762 18.8151 38.4385 19.0489C38.6007 19.2827 38.6873 19.5576 38.6873 19.8389C38.6877 20.0257 38.6498 20.2108 38.5758 20.3835C38.5017 20.5562 38.393 20.7131 38.2558 20.8452C38.1186 20.9773 37.9556 21.082 37.7763 21.1533C37.597 21.2246 37.4048 21.2611 37.2108 21.2607ZM30.8125 22.2083C31.5913 22.2083 32.3526 22.4307 33.0002 22.8474C33.6477 23.264 34.1524 23.8562 34.4504 24.5491C34.7485 25.242 34.8264 26.0044 34.6745 26.7399C34.5226 27.4755 34.1476 28.1511 33.5969 28.6814C33.0462 29.2117 32.3445 29.5728 31.5807 29.7191C30.8169 29.8654 30.0251 29.7904 29.3056 29.5034C28.5861 29.2164 27.9711 28.7304 27.5384 28.1068C27.1058 27.4832 26.8748 26.7501 26.8748 26.0002C26.8759 24.9948 27.2912 24.031 28.0294 23.3201C28.7676 22.6092 29.7685 22.2094 30.8125 22.2083ZM30.8125 20.3127C29.6444 20.3127 28.5024 20.6462 27.5312 21.2712C26.5599 21.8961 25.8029 22.7844 25.3558 23.8236C24.9088 24.8629 24.7918 26.0065 25.0197 27.1097C25.2476 28.213 25.8101 29.2264 26.6362 30.0218C27.4622 30.8172 28.5145 31.3589 29.6602 31.5784C30.8059 31.7978 31.9935 31.6852 33.0727 31.2547C34.1519 30.8242 35.0744 30.0953 35.7234 29.16C36.3724 28.2247 36.7187 27.125 36.7187 26.0002C36.7187 24.4917 36.0965 23.0451 34.9888 21.9785C33.8812 20.9119 32.3789 20.3127 30.8125 20.3127Z" fill="#FA6488"/>
</g>
<g id="Twiter">
<path id="Vector_4" d="M130.469 17.7744C129.519 18.187 128.515 18.4588 127.487 18.5813C128.567 17.9486 129.379 16.9436 129.772 15.7547C128.75 16.352 127.635 16.771 126.473 16.994C125.983 16.4811 125.395 16.0732 124.743 15.7949C124.091 15.5165 123.389 15.3737 122.68 15.375C119.811 15.375 117.488 17.6637 117.488 20.485C117.486 20.8774 117.531 21.2687 117.622 21.6504C115.564 21.5539 113.549 21.029 111.706 20.1091C109.862 19.1892 108.231 17.8947 106.917 16.3084C106.456 17.0858 106.212 17.9727 106.211 18.8766C106.211 20.6484 107.135 22.2147 108.531 23.1322C107.704 23.1126 106.894 22.8937 106.17 22.4941V22.5574C106.17 25.0359 107.963 27.0979 110.336 27.5672C109.89 27.6862 109.43 27.7464 108.968 27.7465C108.64 27.7471 108.313 27.7153 107.992 27.6516C108.651 29.6818 110.572 31.1584 112.846 31.2006C110.998 32.6249 108.729 33.3947 106.396 33.3891C105.981 33.3885 105.568 33.3638 105.156 33.3152C107.53 34.8309 110.289 35.6327 113.105 35.625C122.669 35.625 127.894 27.8361 127.894 21.0809C127.894 20.8594 127.888 20.6379 127.878 20.4217C128.892 19.7003 129.769 18.8039 130.469 17.7744Z" fill="#4CCEEB"/>
</g>
<path id="Vector_5" d="M215.313 26C215.313 19.9271 210.385 15 204.313 15C198.24 15 193.312 19.9271 193.312 26C193.312 32.0729 198.24 37 204.313 37C210.385 37 215.313 32.0729 215.313 26Z" stroke="#DDDDDD" stroke-width="2" stroke-miterlimit="10"/>
<path id="Vector_6" d="M208.313 26H200.312M204.313 22V30V22Z" stroke="#DDDDDD" stroke-width="2" stroke-linecap="round" stroke-linejoin="round"/>
<g id="Pintrest">
<path id="Vector_7" d="M162.315 14C155.687 14 150.312 19.372 150.312 25.9973C150.312 30.9087 153.27 35.1292 157.498 36.9877C157.466 36.1522 157.493 35.1453 157.707 34.2348C157.937 33.26 159.25 27.6952 159.25 27.6952C159.25 27.6952 158.864 26.9293 158.864 25.7992C158.864 24.021 159.893 22.6927 161.179 22.6927C162.272 22.6927 162.797 23.5122 162.797 24.4923C162.797 25.5903 162.095 27.2292 161.736 28.7503C161.436 30.025 162.374 31.0587 163.633 31.0587C165.905 31.0587 167.438 28.1397 167.438 24.6798C167.438 22.05 165.664 20.0844 162.444 20.0844C158.805 20.0844 156.534 22.7998 156.534 25.8313C156.534 26.8757 156.844 27.6148 157.327 28.1825C157.546 28.445 157.578 28.5521 157.498 28.852C157.439 29.0716 157.31 29.6019 157.252 29.8161C157.171 30.1214 156.925 30.2285 156.651 30.116C154.974 29.4305 154.192 27.5988 154.192 25.5314C154.192 22.125 157.069 18.0384 162.771 18.0384C167.352 18.0384 170.369 21.3537 170.369 24.9101C170.369 29.6179 167.749 33.1314 163.891 33.1314C162.594 33.1314 161.377 32.4298 160.96 31.6371C160.96 31.6371 160.263 34.4008 160.113 34.9364C159.861 35.863 159.363 36.7842 158.907 37.5073C160.012 37.833 161.158 37.999 162.31 38C168.938 38 174.312 32.628 174.312 26.0027C174.312 19.3774 168.943 14 162.315 14Z" fill="#FF6969"/>
</g>
</g>
</svg>
