<svg width="14" height="15" viewBox="0 0 14 15" fill="none" xmlns="http://www.w3.org/2000/svg">
<path id="Star 9" d="M4.80014 1.54736C4.8413 0.579511 6.09692 0.229785 6.6325 1.03699L8.34525 3.61839C8.58477 3.97938 9.0295 4.14509 9.44684 4.02885L12.4312 3.19762C13.3644 2.93769 14.085 4.02378 13.4828 4.78258L11.557 7.20921C11.2877 7.54856 11.2675 8.02272 11.507 8.38372L13.2198 10.9651C13.7554 11.7723 12.9451 12.7933 12.0374 12.4551L9.13442 11.3734C8.72846 11.2221 8.27126 11.3495 8.00195 11.6888L6.07617 14.1154C5.47397 14.8742 4.2526 14.4192 4.29377 13.4513L4.42543 10.3562C4.44384 9.92334 4.18145 9.52787 3.77549 9.37661L0.872528 8.29495C-0.0352286 7.95671 0.0201685 6.65448 0.953369 6.39455L3.9377 5.56332C4.35504 5.44708 4.65006 5.07533 4.66847 4.64249L4.80014 1.54736Z" fill="#FFB84D"/>
</svg>
