<svg width="16" height="16" viewBox="0 0 16 16" fill="none" xmlns="http://www.w3.org/2000/svg">
<g id="Timer">
<path id="Vector" d="M2.78356 3.3334C1.65163 4.59763 1.0179 6.23027 1.00043 7.92712C0.957414 11.8044 4.12299 14.9927 8.00022 15C11.872 15.0073 15 11.8708 15 8.00003C15 4.18871 11.954 1.08722 8.16427 1.00008C8.14294 0.999397 8.12169 1.00301 8.10179 1.01072C8.08189 1.01842 8.06374 1.03005 8.04843 1.04492C8.03312 1.05979 8.02096 1.07759 8.01268 1.09726C8.0044 1.11693 8.00016 1.13806 8.00022 1.1594V4.20839" stroke="#58DA75" stroke-linecap="round" stroke-linejoin="round"/>
<path id="Vector_2" d="M6.88835 8.51369L4.05254 4.45873C4.01331 4.40255 3.99511 4.33436 4.00113 4.26611C4.00715 4.19785 4.03701 4.1339 4.08548 4.08545C4.13394 4.037 4.19792 4.00715 4.26619 4.00113C4.33447 3.99511 4.40268 4.0133 4.45888 4.05252L8.51517 6.8874C8.76397 7.06653 8.93223 7.33638 8.98354 7.63856C9.03486 7.94075 8.9651 8.25099 8.78938 8.50216C8.61365 8.75334 8.34607 8.92526 8.04452 8.98073C7.74297 9.03621 7.4317 8.97079 7.17803 8.79861C7.06587 8.72091 6.96789 8.62453 6.88835 8.51369Z" fill="#58DA75"/>
</g>
</svg>
