<svg width="28" height="28" viewBox="0 0 28 28" fill="none" xmlns="http://www.w3.org/2000/svg">
<path id="Vector" d="M24.1932 19.095C24.1701 19.0667 24.1411 19.044 24.1081 19.0284C24.0751 19.0128 24.0391 19.0047 24.0026 19.0047C23.9661 19.0047 23.9301 19.0128 23.8971 19.0284C23.8641 19.044 23.835 19.0667 23.8119 19.095C23.1556 19.8695 20.9989 22.0027 20.9989 23.9461C20.9989 25.6326 22.3429 27 23.9995 27C25.656 27 27 25.6258 27 23.9461C27 22.0027 24.8559 19.8695 24.1932 19.095V19.095ZM22.1866 15.9998L7.72216 1.66141C7.51309 1.45177 7.26466 1.28542 6.99112 1.17192C6.71758 1.05843 6.42431 1 6.12812 1C5.83194 1 5.53867 1.05843 5.26513 1.17192C4.99158 1.28542 4.74316 1.45177 4.53409 1.66141L4.21215 1.98311C4.00236 2.19203 3.83589 2.44028 3.72231 2.71362C3.60873 2.98696 3.55026 3.28002 3.55026 3.57599C3.55026 3.87195 3.60873 4.16501 3.72231 4.43835C3.83589 4.71169 4.00236 4.95994 4.21215 5.16886L7.51837 8.47267L11.0815 4.91213L1.51604 14.4569C1.35093 14.621 1.22025 14.8163 1.13164 15.0315C1.04304 15.2467 0.998303 15.4774 1.00005 15.7101C1.0018 15.9428 1.04999 16.1728 1.14181 16.3867C1.23364 16.6005 1.36724 16.7939 1.5348 16.9555L9.73627 24.8262C10.0638 25.1395 10.5 25.3139 10.9534 25.3127C11.4068 25.3116 11.8421 25.1349 12.168 24.8199C14.5309 22.5337 19.563 17.6676 20.0881 17.1429C20.4507 16.7806 21.2258 16.6994 21.8822 16.6994H21.901C21.9821 16.6995 22.0615 16.6754 22.1288 16.6302C22.1962 16.585 22.2486 16.5207 22.2793 16.4456C22.3099 16.3705 22.3175 16.288 22.301 16.2086C22.2845 16.1292 22.2447 16.0565 22.1866 15.9998V15.9998Z" stroke="#5956E9" stroke-width="2" stroke-miterlimit="10"/>
</svg>
